 <svg  version="1.0" xmlns="http://www.w3.org/2000/svg"  width="576.000000pt" height="576.000000pt" viewBox="0 0 576.000000 576.000000"  preserveAspectRatio="xMidYMid meet">  <g transform="translate(0.000000,576.000000) scale(0.100000,-0.100000)" fill="#317252" stroke="none"> <path d="M843 4461 c-69 -6 -74 -8 -118 -51 -85 -82 -77 67 -77 -1531 0 -1026 3 -1436 11 -1461 6 -19 35 -53 66 -81 44 -39 65 -50 107 -56 55 -9 340 -6 395 4 41 7 147 119 157 165 11 56 7 2811 -4 2852 -6 20 -33 60 -63 92 -44 47 -60 57 -102 65 -54 10 -255 11 -372 2z m422 -110 c7 -1 9 -499 8 -1478 l-2 -1478 -256 0 -255 0 0 1473 c0 810 2 1476 4 1480 3 5 423 7 501 3z"/> <path d="M2102 4456 c-18 -6 -57 -36 -87 -67 -47 -49 -54 -62 -60 -110 -3 -30 -5 -679 -3 -1444 3 -1273 4 -1393 20 -1427 17 -39 86 -107 122 -121 11 -5 436 -8 943 -8 1004 1 966 -1 1012 57 22 28 73 64 91 64 6 0 29 -17 53 -39 77 -71 233 -131 337 -130 174 0 340 96 447 256 146 219 85 529 -136 697 -130 98 -300 134 -437 93 -112 -33 -228 -113 -294 -202 -50 -68 -91 -150 -84 -169 3 -9 -4 -21 -19 -30 -21 -15 -95 -16 -651 -17 -586 -1 -628 0 -647 16 -19 18 -19 41 -19 1216 0 814 -3 1207 -11 1225 -14 38 -98 127 -129 137 -38 13 -410 16 -448 3z m468 -1416 l0 -1311 720 3 c396 2 720 1 720 -2 0 -3 1 -78 2 -168 l1 -163 -976 -2 c-538 -1 -978 1 -980 5 -1 5 -1 671 1 1480 l2 1473 256 -2 255 -1 -1 -1312z m2095 -877 c83 -32 110 -50 164 -104 31 -31 70 -82 86 -115 29 -56 30 -64 29 -184 0 -105 -4 -132 -21 -168 -44 -92 -183 -222 -238 -222 -14 0 -40 -7 -56 -16 -38 -19 -185 -15 -239 6 -47 19 -151 87 -173 114 -49 58 -87 141 -104 220 -16 80 -16 87 0 139 9 29 17 63 17 74 0 11 14 37 30 58 17 21 30 41 30 44 0 26 143 141 175 141 9 0 31 7 48 15 58 26 181 25 252 -2z"/> <path d="M4650 2037 c0 -12 -7 -33 -16 -45 -13 -19 -24 -22 -79 -22 l-64 0 -3 -57 -3 -58 -60 -5 c-65 -5 -73 -15 -60 -67 l6 -26 134 7 134 8 16 -26 c14 -21 15 -31 6 -57 -23 -66 -6 -99 50 -99 13 0 33 -9 45 -21 12 -12 27 -18 32 -15 5 3 21 31 36 61 22 48 26 69 26 150 0 114 -16 152 -99 238 -60 62 -101 76 -101 34z"/> <path d="M4197 1823 c-11 -11 -8 -43 12 -126 20 -79 39 -112 104 -178 38 -39 142 -93 163 -85 9 3 14 21 14 46 0 35 -3 40 -23 40 -33 0 -55 29 -66 84 -7 38 -18 57 -52 90 -24 22 -63 62 -86 89 -41 46 -53 54 -66 40z"/> </g> </svg> 